# xmcd CD database file
#
# Track frame offsets:
#	150
#	16954
#	35342
#
# Disc length: 2729 seconds
#
# Revision: 0
# Processed by: cddbd v1.5.2PL0 Copyright (c) Steve Scherf et al.
# Submitted via: Feurio! 1.68 - http://www.feurio.com
#
DISCID=180aa703
DTITLE=Albert Collins - Cotati Caberet   Cotati, CA   09-17-82   Early Show   
DTITLE=Disc 2
DYEAR=1900
DGENRE=
TTITLE0=unknown
TTITLE1=unknown
TTITLE2=I Got That Feeling
EXTD=
EXTT0=
EXTT1=
EXTT2=
PLAYORDER=
